<svg id="emGHK7Qw34V1" xmlns="http://www.w3.org/2000/svg" xmlns:xlink="http://www.w3.org/1999/xlink" viewBox="0 0 151 47" shape-rendering="geometricPrecision" text-rendering="geometricPrecision">
<style><![CDATA[
#emGHK7Qw34V2 {animation: emGHK7Qw34V2_c_o 7500ms linear infinite normal forwards}@keyframes emGHK7Qw34V2_c_o { 0% {opacity: 0} 16% {opacity: 0} 20% {opacity: 1} 53.333333% {opacity: 1} 61.333333% {opacity: 1} 65.333333% {opacity: 0} 100% {opacity: 0}} #emGHK7Qw34V3 {animation: emGHK7Qw34V3_c_o 7500ms linear infinite normal forwards}@keyframes emGHK7Qw34V3_c_o { 0% {opacity: 0} 20% {opacity: 0} 24% {opacity: 1} 57.333333% {opacity: 1} 61.333333% {opacity: 0} 100% {opacity: 0}} #emGHK7Qw34V4 {animation: emGHK7Qw34V4_c_o 7500ms linear infinite normal forwards}@keyframes emGHK7Qw34V4_c_o { 0% {opacity: 0} 4% {opacity: 1} 53.333333% {opacity: 1} 77.333333% {opacity: 1} 81.333333% {opacity: 0} 100% {opacity: 0}} #emGHK7Qw34V5 {animation: emGHK7Qw34V5_c_o 7500ms linear infinite normal forwards}@keyframes emGHK7Qw34V5_c_o { 0% {opacity: 0} 4% {opacity: 0} 8% {opacity: 1} 53.333333% {opacity: 1} 73.333333% {opacity: 1} 77.333333% {opacity: 0} 100% {opacity: 0}} #emGHK7Qw34V6 {animation: emGHK7Qw34V6_c_o 7500ms linear infinite normal forwards}@keyframes emGHK7Qw34V6_c_o { 0% {opacity: 0} 8% {opacity: 0} 12% {opacity: 1} 53.333333% {opacity: 1} 69.333333% {opacity: 1} 73.333333% {opacity: 0} 100% {opacity: 0}} #emGHK7Qw34V7 {animation: emGHK7Qw34V7_c_o 7500ms linear infinite normal forwards}@keyframes emGHK7Qw34V7_c_o { 0% {opacity: 0} 24% {opacity: 0;animation-timing-function: cubic-bezier(0.42,0,1,1)} 28% {opacity: 1} 53.333333% {opacity: 1} 57.333333% {opacity: 0} 100% {opacity: 0}} #emGHK7Qw34V8 {animation: emGHK7Qw34V8_c_o 7500ms linear infinite normal forwards}@keyframes emGHK7Qw34V8_c_o { 0% {opacity: 0} 12% {opacity: 0} 16% {opacity: 1} 53.333333% {opacity: 1} 65.333333% {opacity: 1} 69.333333% {opacity: 0} 100% {opacity: 0}}
]]></style>
<rect id="emGHK7Qw34V2" width="10.5454" height="10.5454" rx="0" ry="0" transform="translate(10.5459 21.0909)" opacity="0" fill="#fff"/><path id="emGHK7Qw34V3" d="M21.0908,31.6363h9.7546c.4368,0,.7909.3541.7909.7909v8.9637c0,.4368-.3541.7909-.7909.7909h-8.9637c-.4368,0-.7909-.3541-.7909-.7909v-9.7546Z" opacity="0" fill="#fff"/><path id="emGHK7Qw34V4" d="M0,31.6363h10.5454v9.7546c0,.4368-.3541.7909-.79087.7909h-8.963622C0.354101,42.1818,0,41.8277,0,41.3909v-9.7546Z" opacity="0" fill="#fff"/><rect id="emGHK7Qw34V5" width="10.5454" height="10.5454" rx="0" ry="0" transform="translate(0 21.0909)" opacity="0" fill="#fff"/><rect id="emGHK7Qw34V6" width="10.5454" height="10.5454" rx="0" ry="0" transform="translate(0 10.5455)" opacity="0" fill="#fff"/><path id="emGHK7Qw34V7" d="M21.0908,11.3364c0-.4368.3541-.7909.7909-.7909h8.9637c.4368,0,.7909.3541.7909.7909v8.9636c0,.4368-.3541.7909-.7909.7909h-9.7546v-9.7545Z" opacity="0" fill="#fff"/><path id="emGHK7Qw34V8" d="M0,0.790908C0,0.354101,0.354102,0,0.790908,0h8.963622c.43677,0,.79087.354102.79087.790908v9.754492h-10.5454v-9.754492Z" opacity="0" fill="#fff"/><path d="M54.2617,37.8484h-3.1745v-23.8909h3.1745v14.6618l6.1527-6.4472h3.9273l-6.0218,6.3163l6.48,9.36h-3.6l-4.9418-7.2-1.9964,2.0946v5.1054Zm23.6291-1.4073c-.5455.5019-1.1891.9164-1.9309,1.2437-.72.3273-1.5273.4909-2.4218.4909-.5673,0-1.2109-.0873-1.9309-.2618-.72-.1528-1.3964-.4691-2.0291-.9491-.6109-.48-1.1346-1.1346-1.5709-1.9636-.4146-.851-.6219-1.9528-.6219-3.3055v-9.5236h3.0109v9.5236c0,.6764.0982,1.2545.2946,1.7345.2182.4582.4909.8291.8182,1.1128.3491.2836.7418.4909,1.1782.6218.4363.1309.8836.1963,1.3418.1963.3491,0,.7418-.0654,1.1781-.1963.4582-.1309.8837-.3382,1.2764-.6218.3927-.3055.72-.6873.9818-1.1455.2837-.4582.4255-1.0145.4255-1.6691v-9.5563h3.1745v15.6763h-2.52l-.6545-1.4073Zm10.0851,1.4073h-3.1746v-15.6763h2.52l.6546,1.3418c.3927-.4582.8618-.8509,1.4072-1.1782.5455-.3491,1.211-.5236,1.9964-.5236.3055,0,.6436.0436,1.0146.1309.3927.0654.7854.1963,1.1781.3927.4146.1746.8073.4255,1.1782.7527.3709.3055.6873.7091.9491,1.2109.3709-.6763.9273-1.2545,1.6691-1.7345.7636-.5018,1.5709-.7527,2.4218-.7527.5676,0,1.1676.0873,1.7996.2618.633.1745,1.222.5018,1.768.9818.545.48.992,1.1455,1.341,1.9964.35.8509.524,1.9527.524,3.3054v9.4909h-2.978v-9.5236c0-1.3527-.284-2.2909-.851-2.8145-.545-.5455-1.276-.8182-2.1927-.8182-.6982,0-1.3091.2945-1.8327.8836s-.7855,1.5164-.7855,2.7818v9.4909h-2.9781v-9.5236c0-1.3527-.2837-2.2909-.8509-2.8145-.5455-.5455-1.2764-.8182-2.1928-.8182-.6545,0-1.2327.2509-1.7345.7527-.48.5018-.7636,1.2873-.8509,2.3564v10.0472Zm20.9871,6.48v-22.1563h2.52l.655,1.6363c.633-.6327,1.352-1.1236,2.16-1.4727.829-.3491,1.756-.5236,2.782-.5236c1.09,0,2.094.2182,3.01.6545.939.4146,1.746.9927,2.422,1.7346.677.7418,1.2,1.6145,1.571,2.6181.393,1.0037.589,2.0728.589,3.2073c0,1.1346-.196,2.2036-.589,3.2073-.371,1.0036-.894,1.8763-1.571,2.6182-.676.7418-1.483,1.3309-2.422,1.7672-.916.4146-1.92.6218-3.01.6218-1.07,0-2.008-.1745-2.815-.5236-.807-.3709-1.516-.8945-2.127-1.5709v8.1818h-3.175Zm7.855-19.6363c-.633,0-1.233.1091-1.8.3272-.568.1964-1.069.5237-1.506.9819-.414.4363-.741.9927-.981,1.6691-.24.6545-.36,1.4399-.36,2.3563c0,.9818.12,1.8218.36,2.52.24.6764.567,1.2327.981,1.6691.437.4145.938.72,1.506.9164.567.1963,1.167.2945,1.8.2945.632,0,1.232-.1418,1.8-.4254.567-.2837,1.058-.6655,1.472-1.1455.415-.5018.742-1.08.982-1.7345.24-.6546.36-1.3528.36-2.0946s-.12-1.44-.36-2.0945-.567-1.2218-.982-1.7018c-.414-.48-.905-.851-1.472-1.1128-.568-.2836-1.168-.4254-1.8-.4254Zm18.047,13.549c-1.134,0-2.203-.2072-3.207-.6218-.982-.4363-1.844-1.0254-2.585-1.7672-.742-.7419-1.331-1.6146-1.768-2.6182-.414-1.0037-.622-2.0727-.622-3.2073c0-1.1345.197-2.2036.59-3.2073.414-1.0036.96-1.8763,1.636-2.6181.698-.7419,1.505-1.32,2.422-1.7346.916-.4363,1.898-.6545,2.945-.6545c1.069,0,2.051.1854,2.946.5563.916.3709,1.701.9491,2.356,1.7346.676.7854,1.2,1.7891,1.571,3.0109.371,1.2.556,2.64.556,4.32h-11.651c.153.5673.393,1.1018.72,1.6036.328.48.709.9055,1.146,1.2764.458.3491.96.6218,1.505.8182.568.1963,1.157.2945,1.768.2945.829,0,1.592-.1527,2.29-.4582.72-.3054,1.331-.7091,1.833-1.2109l1.964,1.9636c-.764.7637-1.702,1.3746-2.815,1.8328-1.091.4582-2.291.6872-3.6.6872Zm-.589-13.549c-.502,0-.982.0982-1.44.2945-.436.1964-.851.4691-1.243.8182-.371.3491-.699.7636-.982,1.2436-.262.48-.458,1.0037-.589,1.5709h8.28c-.044-.5236-.164-1.0254-.36-1.5054-.197-.48-.469-.8946-.819-1.2436-.349-.371-.763-.6546-1.243-.851-.458-.2181-.993-.3272-1.604-.3272Zm13.853-10.7346v23.8909h-3.175v-23.8909h3.175Z" fill="#fff"/></svg>
