<svg width="75" height="23" viewBox="0 0 75 23" fill="none" xmlns="http://www.w3.org/2000/svg">
<path fill-rule="evenodd" clip-rule="evenodd" d="M0.395214 0.103668C0.176943 0.103668 0 0.280612 0 0.498882V5.37319H5.26952V0.498882C5.26952 0.280612 5.09258 0.103668 4.87431 0.103668H0.395214ZM5.26952 5.37321H0V10.6427H5.26952V5.37321ZM5.26975 10.6427H10.5393V15.9122H15.4133C15.6316 15.9122 15.8085 16.0892 15.8085 16.3075V20.7865C15.8085 21.0048 15.6316 21.1818 15.4133 21.1818H10.9342C10.716 21.1818 10.539 21.0048 10.539 20.7865V15.9123H5.26975V10.6427ZM0 15.9123V20.7865C0 21.0048 0.176944 21.1818 0.395214 21.1818H4.87431C5.09258 21.1818 5.26952 21.0048 5.26952 20.7865V15.9123V15.9122V10.6427H0V15.9122V15.9123ZM10.539 5.76842C10.539 5.55015 10.716 5.37321 10.9342 5.37321H15.4133C15.6316 5.37321 15.8085 5.55015 15.8085 5.76842V10.2475C15.8085 10.4658 15.6316 10.6427 15.4133 10.6427H10.539V5.76842Z" fill="white" fill-opacity="0.5"/>
<path d="M27.1142 19.0255H25.5278V7.08731H27.1142V14.4138L30.1886 11.1921H32.1511L29.142 14.3483L32.38 19.0255H30.5811L28.1117 15.4277L27.1142 16.4743V19.0255ZM38.9215 18.3223C38.649 18.573 38.3273 18.7802 37.9566 18.9437C37.5969 19.1073 37.1935 19.189 36.7465 19.189C36.463 19.189 36.1414 19.1454 35.7816 19.0582C35.4218 18.9819 35.0839 18.8238 34.7677 18.5839C34.4624 18.3441 34.2008 18.017 33.9827 17.6027C33.7756 17.1775 33.672 16.627 33.672 15.951V11.1921H35.1765V15.951C35.1765 16.289 35.2256 16.5779 35.3237 16.8177C35.4327 17.0467 35.569 17.232 35.7325 17.3738C35.907 17.5155 36.1032 17.6191 36.3213 17.6845C36.5393 17.7499 36.7628 17.7826 36.9918 17.7826C37.1662 17.7826 37.3625 17.7499 37.5805 17.6845C37.8095 17.6191 38.0221 17.5155 38.2183 17.3738C38.4146 17.2211 38.5781 17.0303 38.7089 16.8014C38.8507 16.5724 38.9215 16.2944 38.9215 15.9674V11.1921H40.5078V19.0255H39.2486L38.9215 18.3223ZM43.961 19.0255H42.3747V11.1921H43.6339L43.961 11.8626C44.1573 11.6336 44.3917 11.4374 44.6642 11.2738C44.9368 11.0994 45.2693 11.0122 45.6618 11.0122C45.8144 11.0122 45.9834 11.034 46.1688 11.0776C46.365 11.1103 46.5612 11.1757 46.7575 11.2738C46.9646 11.3611 47.1609 11.4864 47.3462 11.65C47.5316 11.8026 47.6896 12.0043 47.8205 12.2551C48.0058 11.9171 48.2838 11.6282 48.6545 11.3883C49.0361 11.1376 49.4395 11.0122 49.8647 11.0122C50.1482 11.0122 50.448 11.0558 50.7641 11.143C51.0803 11.2302 51.3747 11.3938 51.6472 11.6336C51.9198 11.8735 52.1433 12.206 52.3177 12.6312C52.4922 13.0564 52.5794 13.607 52.5794 14.2829V19.0255H51.0912V14.2666C51.0912 13.5906 50.9495 13.1218 50.666 12.8602C50.3935 12.5876 50.0282 12.4513 49.5703 12.4513C49.2214 12.4513 48.9162 12.5985 48.6545 12.8929C48.3929 13.1872 48.262 13.6506 48.262 14.2829V19.0255H46.7738V14.2666C46.7738 13.5906 46.6321 13.1218 46.3486 12.8602C46.0761 12.5876 45.7109 12.4513 45.2529 12.4513C44.9259 12.4513 44.637 12.5767 44.3862 12.8275C44.1463 13.0782 44.0046 13.4707 43.961 14.0049V19.0255ZM54.4483 22.2635V11.1921H55.7076L56.0346 12.0098C56.3508 11.6936 56.7106 11.4483 57.114 11.2738C57.5283 11.0994 57.9916 11.0122 58.504 11.0122C59.0492 11.0122 59.5507 11.1212 60.0086 11.3393C60.4774 11.5464 60.8808 11.8353 61.2187 12.206C61.5567 12.5767 61.8184 13.0128 62.0037 13.5143C62.2 14.0158 62.2981 14.55 62.2981 15.117C62.2981 15.6839 62.2 16.2181 62.0037 16.7196C61.8184 17.2211 61.5567 17.6572 61.2187 18.0279C60.8808 18.3986 60.4774 18.693 60.0086 18.911C59.5507 19.1182 59.0492 19.2217 58.504 19.2217C57.9698 19.2217 57.501 19.1345 57.0976 18.9601C56.6942 18.7747 56.3399 18.5131 56.0346 18.1751V22.2635H54.4483ZM58.3732 12.4513C58.057 12.4513 57.7572 12.5058 57.4738 12.6149C57.1903 12.713 56.9395 12.8765 56.7215 13.1055C56.5143 13.3235 56.3508 13.6015 56.2309 13.9395C56.1109 14.2666 56.051 14.6591 56.051 15.117C56.051 15.6076 56.1109 16.0273 56.2309 16.3762C56.3508 16.7142 56.5143 16.9922 56.7215 17.2102C56.9395 17.4174 57.1903 17.57 57.4738 17.6681C57.7572 17.7663 58.057 17.8153 58.3732 17.8153C58.6894 17.8153 58.9892 17.7445 59.2727 17.6027C59.5561 17.461 59.8014 17.2702 60.0086 17.0303C60.2157 16.7796 60.3793 16.4907 60.4992 16.1636C60.6191 15.8365 60.6791 15.4876 60.6791 15.117C60.6791 14.7463 60.6191 14.3974 60.4992 14.0703C60.3793 13.7433 60.2157 13.4598 60.0086 13.2199C59.8014 12.9801 59.5561 12.7947 59.2727 12.6639C58.9892 12.5222 58.6894 12.4513 58.3732 12.4513ZM67.3915 19.2217C66.8246 19.2217 66.2903 19.1182 65.7888 18.911C65.2982 18.693 64.8676 18.3986 64.4969 18.0279C64.1262 17.6572 63.8318 17.2211 63.6138 16.7196C63.4066 16.2181 63.3031 15.6839 63.3031 15.117C63.3031 14.55 63.4012 14.0158 63.5974 13.5143C63.8046 13.0128 64.0771 12.5767 64.4151 12.206C64.764 11.8353 65.1674 11.5464 65.6253 11.3393C66.0832 11.1212 66.5738 11.0122 67.0971 11.0122C67.6313 11.0122 68.122 11.1049 68.569 11.2902C69.0269 11.4755 69.4194 11.7645 69.7464 12.1569C70.0844 12.5494 70.3461 13.051 70.5314 13.6615C70.7167 14.2611 70.8094 14.9807 70.8094 15.8202H64.9875C65.0638 16.1036 65.1837 16.3707 65.3473 16.6215C65.5108 16.8614 65.7016 17.074 65.9197 17.2593C66.1486 17.4337 66.3994 17.57 66.6719 17.6681C66.9554 17.7663 67.2498 17.8153 67.555 17.8153C67.9693 17.8153 68.3509 17.739 68.6998 17.5864C69.0596 17.4337 69.3648 17.232 69.6156 16.9813L70.5968 17.9625C70.2152 18.3441 69.7464 18.6494 69.1904 18.8783C68.6453 19.1073 68.0456 19.2217 67.3915 19.2217ZM67.0971 12.4513C66.8464 12.4513 66.6065 12.5004 66.3776 12.5985C66.1595 12.6966 65.9524 12.8329 65.7561 13.0073C65.5708 13.1818 65.4072 13.3889 65.2655 13.6288C65.1347 13.8686 65.0366 14.1303 64.9711 14.4138H69.1086C69.0868 14.1521 69.0269 13.9013 68.9287 13.6615C68.8306 13.4216 68.6943 13.2145 68.5199 13.04C68.3455 12.8547 68.1383 12.713 67.8985 12.6149C67.6695 12.5058 67.4024 12.4513 67.0971 12.4513ZM74.0192 7.08731V19.0255H72.4329V7.08731H74.0192Z" fill="white" fill-opacity="0.5"/>
</svg>
